<?xml version="1.0" encoding="iso-8859-1"?>
<!-- Generator: Adobe Illustrator 19.0.0, SVG Export Plug-In . SVG Version: 6.00 Build 0)  -->
<svg version="1.1" id="Layer_1" xmlns="http://www.w3.org/2000/svg" xmlns:xlink="http://www.w3.org/1999/xlink" x="0px" y="0px"
	 viewBox="0 0 512 512" style="enable-background:new 0 0 512 512;" xml:space="preserve">
<g>
	<g>
		<path d="M213.333,290.133H8.533c-4.719,0-8.533,3.823-8.533,8.533v204.8C0,508.177,3.814,512,8.533,512h204.8
			c4.719,0,8.533-3.823,8.533-8.533v-204.8C221.867,293.956,218.052,290.133,213.333,290.133z"/>
	</g>
</g>
<g>
	<g>
		<path d="M196.267,17.067H25.6c-4.719,0-8.533,3.823-8.533,8.533v170.667c0,4.71,3.814,8.533,8.533,8.533h170.667
			c4.719,0,8.533-3.823,8.533-8.533V25.6C204.8,20.89,200.986,17.067,196.267,17.067z"/>
	</g>
</g>
<g>
	<g>
		<path d="M503.467,0h-204.8c-4.719,0-8.533,3.823-8.533,8.533v204.8c0,4.71,3.814,8.533,8.533,8.533h204.8
			c4.719,0,8.533-3.823,8.533-8.533V8.533C512,3.823,508.186,0,503.467,0z"/>
	</g>
</g>
<g>
	<g>
		<path d="M503.467,290.133h-204.8c-4.719,0-8.533,3.823-8.533,8.533v204.8c0,4.71,3.814,8.533,8.533,8.533h204.8
			c4.719,0,8.533-3.823,8.533-8.533v-204.8C512,293.956,508.186,290.133,503.467,290.133z"/>
	</g>
</g>
<g>
</g>
<g>
</g>
<g>
</g>
<g>
</g>
<g>
</g>
<g>
</g>
<g>
</g>
<g>
</g>
<g>
</g>
<g>
</g>
<g>
</g>
<g>
</g>
<g>
</g>
<g>
</g>
<g>
</g>
</svg>
