<svg id="bold" enable-background="new 0 0 24 24" height="512" viewBox="0 0 24 24" width="512" xmlns="http://www.w3.org/2000/svg"><path d="m23.707 11.293-3.721-3.721c.001-.025.014-.047.014-.072v-3c0-.552-.447-1-1-1h-10v-2.5c0-.552-.447-1-1-1h-7c-.553 0-1 .448-1 1v7c0 .552.447 1 1 1h7c.553 0 1-.448 1-1v-2.5h9v2c0 .025.013.047.014.072l-3.721 3.721c-.391.391-.391 1.023 0 1.414l3.721 3.721c-.001.025-.014.047-.014.072v2h-9.121c-.457-2-2.242-3.5-4.379-3.5-2.481 0-4.5 2.019-4.5 4.5s2.019 4.5 4.5 4.5c2.137 0 3.922-1.5 4.379-3.5h10.121c.553 0 1-.448 1-1v-3c0-.025-.013-.047-.014-.072l3.721-3.721c.391-.391.391-1.023 0-1.414zm-16.707-4.293h-5v-5h5zm-2.5 15c-1.379 0-2.5-1.122-2.5-2.5s1.121-2.5 2.5-2.5 2.5 1.122 2.5 2.5-1.121 2.5-2.5 2.5z"/></svg>